<svg width="200" height="200" viewBox="0 0 200 200" fill="none" xmlns="http://www.w3.org/2000/svg">
<path d="M150.25 73.6203C151.3 68.4703 145.56 67.3003 144.52 72.4503C144.08 74.6103 149.2 78.7803 150.25 73.6203ZM142.73 171C189.09 158.91 189.73 158.22 142.64 170.63C127.35 174.61 104 181 142.73 171ZM169.08 167.55C110.36 186.74 103.82 190.18 169.16 167.8C176.37 165.33 176 165.49 175.97 165.38C175.955 165.37 175.937 165.365 175.92 165.365C175.902 165.365 175.884 165.37 175.87 165.38L169.08 167.55ZM130.38 188.1C130.386 188.107 130.394 188.112 130.402 188.116C130.411 188.119 130.42 188.121 130.43 188.121C130.439 188.121 130.448 188.119 130.457 188.116C130.465 188.112 130.473 188.107 130.48 188.1C150.37 180.97 168.42 175.28 175.07 172.68C176.47 172.14 173.84 172.91 172.43 173.39C160.29 177.53 130.24 187.71 130.38 188.1ZM46.9995 127.83C46.9995 126.64 46.5895 126.57 46.5095 127.11C46.3547 129.19 46.3146 131.276 46.3895 133.36C44.473 132.266 42.4655 131.339 40.3895 130.59C40.3895 128.38 40.3295 126.67 40.2595 125.7C40.1795 124.54 39.7495 124.86 39.7495 125.46V127.81C39.6595 131.81 39.6795 135.25 39.8395 136.73C39.8895 137.24 40.1695 137.4 40.2695 136.9C40.4396 134.905 40.4797 132.901 40.3895 130.9C42.312 131.983 44.3185 132.909 46.3895 133.67C46.3895 136.92 46.3895 138.67 46.4795 139.89C46.4795 140.46 47.0495 140.76 47.0295 139.83C46.9995 135.79 46.9995 130.74 46.9995 127.83ZM53.4995 130.08C53 134.79 52.8662 139.53 53.0995 144.26C53.0995 144.72 53.4995 144.76 53.5395 144.44C53.6195 143.58 53.5395 137.44 54.2495 130.67C55.6234 131.303 57.0403 131.838 58.4895 132.27C59.0195 132.39 58.8895 131.99 58.6595 131.87C54.7495 129.93 51.3495 128.82 49.9595 128.16C49.6495 128.02 48.8595 128.16 49.7895 128.68C50.4695 129.06 51.4595 129.21 53.4995 130.08ZM69.0995 135.7C69.0441 135.692 68.9873 135.701 68.9372 135.726C68.887 135.751 68.8459 135.791 68.8195 135.84L65.2095 143.44C60.3095 128.22 61.0395 126.52 60.9295 146.9C60.9295 147.11 61.2195 147.26 61.3195 147.06C61.4195 146.86 61.3195 147.94 61.6095 133.66C65.0795 144.66 64.7895 144.41 65.1395 144.43C65.4895 144.45 66.0595 143.43 68.8995 137.28C69.4095 144.02 69.4395 147.8 69.7095 149.41C69.8095 149.97 70.2795 149.84 70.2295 149.26C70.0295 146.91 69.8295 144.76 69.5595 140.17C69.4695 138.51 69.3595 135.75 69.0995 135.7ZM74.8195 152C74.8195 143.4 74.9095 139.72 74.8195 138.36C74.8195 137.68 74.2395 137.82 74.2595 138.36C74.1395 150.46 74.2595 152.26 74.4395 152.36C77.3095 153.65 79.6795 154.91 80.9295 155.36C81.1795 155.45 81.4395 155.21 80.9295 154.91C79.8595 154.29 77.7995 153.36 74.8195 152ZM83.6095 169.88C82.8695 171.53 81.9695 173.53 81.2095 175.17C82.4451 175.231 83.6603 175.508 84.7995 175.99C84.4095 174.12 83.9995 171.75 83.6095 169.88Z" fill="#1A2A56"/>
<path d="M180.07 154L176 152.2C176.31 151.6 177.4 134.02 177.72 126.88C177.72 126.75 177.81 126.8 175.47 126.15C169.47 124.45 162.07 122.62 156.72 121.41C179.16 115.11 177.81 115.5 177.83 115.31C178.72 107.19 180.11 95.9302 179.95 95.8702L156.58 88.5302C162.69 64.3202 164.23 58.7402 164.45 57.3502C164.53 56.8402 164.58 56.7202 164.33 56.6902C161.11 56.4802 151.33 55.8402 136.69 54.9102C136.57 54.3502 136.21 52.6902 135.57 50.3702C135.2 49.0102 134.73 47.4302 134.16 45.7002C132.172 40.8207 128.49 36.8225 123.79 34.4402C121.66 30.7502 125.17 24.9702 122.95 13.7202C120.73 2.47019 108.95 3.66019 104.95 8.91019C98.2799 17.7302 102.62 23.2902 91.4099 31.1102C89.6999 31.4102 81.9699 34.7902 77.1099 38.2302C74.4661 40.2844 72.2738 42.8613 70.6699 45.8002C68.2454 50.1304 66.3421 54.7324 64.9999 59.5102C64.9868 59.5606 64.9928 59.614 65.0168 59.6602C65.0408 59.7064 65.0811 59.7421 65.1299 59.7602C65.1299 59.7602 66.3999 60.2402 68.4199 60.9102C67.4199 65.8102 66.8599 73.9102 70.0899 77.9102L19.7199 87.1402V115.26L30.8599 118.07C30.8599 118.19 32.4099 136.41 32.6499 136.53L42.4999 141.42L22.4999 146.94C63.9299 157.17 117.59 171.22 117.5 171.56C117.41 171.9 55.9999 156.31 22.1599 147.17V170.72L119.16 194.88C119.08 195.17 118.73 195.22 133.91 190.1C144.58 186.5 180.26 174.35 180.26 174.04C180.15 155 180.16 154.45 180.07 154ZM46.7499 161.07C47.0599 166.66 48.3399 173.75 42.9299 173.72C39.0599 173.61 38.9299 168.72 39.3999 168.72C39.8699 168.72 39.3999 170.08 40.5399 171.72C40.8183 172.06 41.1652 172.338 41.5582 172.534C41.9511 172.731 42.3812 172.842 42.8202 172.861C43.2592 172.88 43.6972 172.806 44.1056 172.644C44.5139 172.482 44.8835 172.235 45.1899 171.92C45.7299 171.255 46.045 170.436 46.0899 169.58C46.0899 168.78 46.0399 166.41 46.3399 160.99C42.2599 160.12 41.9399 159.99 39.3399 159.25C39.2922 159.24 39.2506 159.21 39.2244 159.169C39.1981 159.128 39.1893 159.078 39.1999 159.03C39.2106 158.982 39.2397 158.941 39.2809 158.915C39.3222 158.888 39.3722 158.88 39.4199 158.89C53.1099 160.8 59.9999 163.81 46.7499 161.07ZM61.5199 176.51C61.2999 176.51 61.3599 176.78 60.0299 171.16C58.6888 171.164 57.3613 170.892 56.1299 170.36C54.1299 174.82 54.2399 174.77 54.0099 174.68C53.7799 174.59 55.1799 170.68 58.3099 162.77C58.345 162.68 58.4083 162.603 58.4905 162.551C58.5727 162.5 58.6694 162.476 58.7661 162.484C58.8628 162.492 58.9543 162.531 59.0271 162.595C59.0999 162.659 59.15 162.745 59.1699 162.84C59.1699 162.84 59.4699 164.27 59.8599 166.19C61.1499 172.62 61.2099 173.73 61.6599 176.3C61.6688 176.347 61.6591 176.395 61.6329 176.434C61.6067 176.473 61.5662 176.501 61.5199 176.51ZM72.6399 176.17C70.7999 180.05 70.8799 180.06 70.4599 180.02C70.3691 180.013 70.2825 179.978 70.2113 179.921C70.1401 179.864 70.0874 179.787 70.0599 179.7C69.3899 177.39 68.4899 174.7 66.9899 169.04C66.4399 167.04 66.0499 165.46 66.0499 165.46C66.0354 165.414 66.0398 165.363 66.0623 165.32C66.0848 165.277 66.1235 165.245 66.1699 165.23C66.2164 165.216 66.2667 165.22 66.3098 165.243C66.3529 165.265 66.3854 165.304 66.3999 165.35C67.9999 170.09 68.2599 170.59 70.5999 178.35C77.5599 164 78.2999 164.21 72.6399 176.17ZM86.2999 182C86.0399 182.05 86.1099 182.09 84.9299 176.62C83.5486 176.583 82.1887 176.27 80.9299 175.7C79.8399 178.02 78.3399 181.04 78.2899 181.15C78.262 181.168 78.23 181.177 78.1971 181.179C78.1642 181.18 78.1315 181.173 78.1023 181.158C78.0731 181.142 78.0483 181.12 78.0303 181.092C78.0124 181.065 78.0019 181.033 77.9999 181C77.9999 181 78.5399 179.62 79.2899 177.77C84.9499 163.77 83.9199 164.38 86.4699 181.77C86.4757 181.797 86.4758 181.824 86.4701 181.851C86.4645 181.877 86.4532 181.902 86.4371 181.924C86.421 181.946 86.4005 181.964 86.3768 181.977C86.3531 181.99 86.3269 181.998 86.2999 182ZM177.06 126.88C174.65 127.3 164.28 129.12 151.78 131.34C153.38 127.46 154.44 124.72 155.55 121.76L156.22 121.57C162.14 123.25 170.15 125.32 177.06 126.86V126.88ZM81.5599 100.39C79.1762 98.7107 77.2621 96.4489 75.9999 93.8202L76.8099 93.3702C78.0286 95.3844 79.5382 97.2075 81.2899 98.7802C83.0813 100.423 85.2164 101.646 87.5399 102.36C93.1799 103.96 104.96 106.24 110.73 107.29C109.39 115.83 109.66 130.08 113.25 145.29L112.89 145.24C111.363 140.492 110.394 135.582 110 130.61C109.343 123.038 109.209 115.43 109.6 107.84C109.7 106.49 90.1199 106.54 81.5599 100.37V100.39ZM122.05 91.6102C127.7 93.7302 131.25 99.1502 129.93 106.79C128.37 115.91 123.05 135.95 120.63 144.88C118.28 145.487 115.834 145.63 113.43 145.3C107.81 119.78 112 107 111 106.82C110.89 106.82 93.7199 103.64 87.5599 101.95C85.2851 101.279 83.1878 100.111 81.4199 98.5302C79.6988 96.9972 78.2099 95.222 76.9999 93.2602C78.0799 92.6702 79.1099 92.1202 80.5699 91.3902C86.4199 88.4802 93.6499 85.6602 100.15 85.3102V87.0702C100.09 87.3202 98.8299 87.0002 122.05 91.5902V91.6102ZM138.68 138.61L138.5 138.49C138.394 134.359 138.527 130.226 138.9 126.11C139.62 117.54 140.27 113.56 141.04 111.22C141.71 109.22 142.23 108.05 141.85 107.95C140.74 107.67 139.95 107.44 130.64 105.17C130.684 104.404 130.684 103.636 130.64 102.87C134.62 104.566 138.743 105.905 142.96 106.87C140.9 114.08 139.56 121.476 138.96 128.95C138.75 132 138.64 135.22 138.68 138.59V138.61ZM138.3 133.73L123.3 136.43C124.09 133.62 124.54 131.93 124.98 130.29C129.29 129.09 133.54 127.92 138.56 126.51C138.55 126.7 138.35 129.4 138.3 133.71V133.73ZM129.53 111.55C133.66 111.1 137.88 110.43 141.04 109.82C140.461 112.024 140.001 114.257 139.66 116.51C135.83 117.11 131.66 117.91 127.9 118.8C128.5 116.24 129.06 113.79 129.53 111.53V111.55ZM127.85 119C132.06 118.35 136.11 117.53 139.62 116.71C139.31 118.71 139.11 120.4 138.92 122.28C135.44 122.85 130.81 123.75 126.42 124.8C126.93 122.75 127.35 121.06 127.85 119ZM126.37 125C130.575 124.301 134.754 123.458 138.9 122.47C138.79 123.58 138.69 124.74 138.6 125.98L125.12 129.78C125.54 128.18 126 126.58 126.37 125ZM139.44 129C141.07 112.26 143.86 107.09 143.54 106.56C143.498 106.503 143.438 106.461 143.37 106.44C139.036 105.529 134.785 104.262 130.66 102.65C130.66 102.33 130.66 102.11 130.58 101.85C135.003 103.756 139.579 105.285 144.26 106.42C141.979 113.772 140.461 121.338 139.73 129C139.45 132.16 139.3 135.51 139.34 139L138.87 138.72C139 138.56 138.78 135.8 139.44 129ZM130.62 105.42C133.57 106.23 138.5 107.59 141.47 108.42C141.39 108.66 141.26 109.09 141.09 109.69C138.09 110.02 133.84 110.62 129.57 111.43C129.93 109.62 130.48 106.91 130.62 105.38V105.42ZM119.15 151.65C120.5 151.41 115.15 152.26 128.01 150.33L136.62 149.03C136.503 149.298 136.348 149.547 136.16 149.77C135.216 150.724 134.549 151.916 134.23 153.22L136.31 154.53L119.53 157.37C118.826 155.532 118.694 153.525 119.15 151.61V151.65ZM127.95 149.95L119.2 151.29C119.57 149.03 120.51 146.35 123.14 137.01L138.3 134.26V138.45C138.3 138.51 137.89 145.77 136.79 148.61L127.95 149.95ZM139.55 139.09C139.79 119.22 145.17 106.71 144.8 106.09C144.784 106.057 144.761 106.029 144.731 106.008C144.701 105.987 144.666 105.974 144.63 105.97C142.675 105.591 140.745 105.094 138.85 104.48C135.09 103.31 131.42 101.92 130.55 101.58C130.237 99.3487 129.329 97.2426 127.921 95.483C126.514 93.7234 124.658 92.3753 122.55 91.5802L155.55 89.5102C157.112 89.992 158.447 91.0219 159.31 92.4102C163.67 98.9902 159.37 109.84 155.07 121.41C150.32 134.21 147.07 141.14 147.07 141.34C144.397 141.219 141.791 140.462 139.47 139.13C139.47 139.13 139.55 139.07 139.55 139.05V139.09ZM177.4 115.15C169.88 117.22 162.6 119.26 155.79 121.15C156.57 119.05 156.98 117.9 157.44 116.6C175.44 113.75 175.63 112.19 157.51 116.41C158.1 114.74 158.65 113.11 159.15 111.54C181.73 107.4 181.43 105.94 159.21 111.35C160.21 108.17 161.79 103.04 161.7 99.7102L179.85 96.0002L177.4 115.15ZM164 57.1902L155.93 88.9402L121.77 91.1302L100.49 86.9202V85.2902C100.69 85.2902 110.38 87.5102 121.74 89.2902C121.768 89.2963 121.797 89.2913 121.821 89.2764C121.845 89.2615 121.863 89.2378 121.87 89.2102L130.23 54.9202C139.82 55.5902 154.93 56.6002 164 57.1902ZM101.89 85.2402L122.66 84.8202L121.66 89.0702C115.21 87.6302 108.38 86.3102 101.89 85.2402ZM113.89 16.4202C113.89 16.4202 118.78 16.4202 121.58 18.2202C121.58 18.2202 122.82 30.4702 114.46 30.4702C108.74 30.4702 105.54 23.0602 113.91 16.4202H113.89ZM65.3899 59.4202C66.7678 54.7395 68.6874 50.2356 71.1099 46.0002C72.6848 43.1306 74.8325 40.6152 77.4199 38.6102C81.7155 35.7198 86.3503 33.3688 91.2199 31.6102C98.6299 36.2502 106.22 53.0202 112.53 56.3402C118.84 59.6602 121.8 46.3402 121.6 43.0202C121.43 40.2602 123.13 36.0202 123.67 34.8202C128.274 37.1364 131.888 41.0347 133.85 45.8002C134.44 47.5202 134.92 49.0902 135.31 50.4402C135.95 52.6702 136.31 54.2902 136.46 54.8902C129.46 54.4502 129.88 54.4002 129.82 54.6502L122.71 84.6502C98.9999 85.0402 102.08 84.9202 100.07 84.9602C93.4299 84.9602 86.1399 87.9602 80.2999 90.9602C78.5699 91.8702 76.5899 93.0402 74.9899 94.1002C73.0081 89.6825 72.3181 84.7938 72.9999 80.0002C80.7799 82.6002 87.8399 80.1402 94.1099 80.1502C100.73 80.1502 103.87 77.9502 105.59 82.3502C106.08 84.2902 107.81 84.3502 107.72 82.9002C108.78 84.5102 110.08 84.1602 109.1 81.5202C109.58 82.3402 109.84 83.5902 110.71 83.6702C112.61 83.8302 111.47 77.1802 104.59 74.9202C95.0599 71.8002 92.3499 67.9202 85.5899 67.1002C87.0899 60.3402 88.5899 51.3302 87.2999 44.5102C85.8599 36.7402 81.7799 37.1502 81.6899 37.0502C81.6608 37.0502 81.6328 37.0618 81.6122 37.0824C81.5915 37.103 81.5799 37.131 81.5799 37.1602C81.5799 37.1894 81.5915 37.2173 81.6122 37.238C81.6328 37.2586 81.6608 37.2702 81.6899 37.2702C81.8699 37.4902 89.6899 36.5602 86.3499 60.9202C86.1799 62.1702 85.9799 63.4802 85.7499 64.8602C82.939 64.534 80.1551 64.0059 77.4199 63.2802C73.3543 62.204 69.3458 60.9223 65.4099 59.4402L65.3899 59.4202ZM68.5799 61.0002C73.6799 62.6902 80.4499 64.6002 85.7799 65.0802C85.6699 65.7302 85.5499 66.4002 85.4199 67.0802C80.4199 66.5202 74.9399 68.5202 75.0399 68.7802C75.0445 68.794 75.0517 68.8068 75.0612 68.8179C75.0707 68.8289 75.0823 68.8379 75.0953 68.8444C75.1083 68.851 75.1225 68.8548 75.137 68.8558C75.1516 68.8568 75.1662 68.8549 75.1799 68.8502C88.3499 63.9302 92.6999 71.4502 104.47 75.3902C111.09 77.5902 111.69 83.7002 110.65 83.1002C110.1 82.7702 110.18 82.1002 109.29 80.7802C108.855 80.1353 108.38 79.5175 107.87 78.9302C107.85 78.9026 107.824 78.8793 107.795 78.8616C107.765 78.8439 107.733 78.8322 107.699 78.8271C107.665 78.822 107.63 78.8236 107.597 78.8319C107.564 78.8401 107.533 78.8548 107.505 78.8752C107.477 78.8956 107.454 78.9211 107.436 78.9505C107.419 78.9799 107.407 79.0124 107.402 79.0463C107.397 79.0802 107.398 79.1148 107.407 79.148C107.415 79.1813 107.43 79.2126 107.45 79.2402C109.76 83.2402 109.3 85.4202 107.04 80.4002C106.53 79.0602 106.43 78.7202 106.1 78.8602C105.61 79.0702 106.37 79.7502 107 81.8602C107.159 82.3091 107.226 82.7849 107.2 83.2602C107.2 83.3502 106.87 83.3702 106.63 83.1502C105.63 82.1502 106.2 78.6402 100.52 79.1502C98.8299 79.2902 96.7399 79.6502 94.1399 79.6502C87.5099 79.6502 81.7299 82.0302 73.3899 79.7102C67.0899 77.9302 67.3499 67.4202 68.5799 61.0002ZM78.4499 102.09L82.9999 103.25C79.6288 101.022 76.904 97.9459 75.0999 94.3302L75.7699 93.9302C77.0316 96.6118 78.9554 98.9279 81.3599 100.66C85.5599 103.78 90.0299 104.77 99.3599 106.5C104.42 107.5 108.12 107.93 109.09 108.05C108.46 118.78 108.93 135.05 112.62 145.16C111.87 145.03 111.34 144.9 111.13 144.85C108.889 136.963 107.718 128.81 107.65 120.61C107.59 111.3 109.03 109.88 108.23 109.88C107.97 109.82 93.4599 109.93 83.8399 103.81L78.3599 102.53C4.77994 85.3502 3.86993 82.7202 78.4499 102.07V102.09ZM102.96 110.09C105.38 110.34 107.18 110.4 107.88 110.42C106.46 117.48 107.21 127.17 108.52 134.49L102.96 136.09V110.09ZM74.7499 115.65C80.0899 115.99 82.5599 121.65 80.1399 124.15C78.0399 126.3 72.7899 125.15 70.9399 122.56C69.9873 121.158 69.6279 119.436 69.9399 117.77C69.9399 117.58 70.4699 117.33 70.5899 118.13C70.8699 118.96 69.0999 122.92 75.2399 124.06C83.0099 125.54 80.9099 117.28 74.5399 116.88C68.4299 116.48 68.9599 109.25 71.1299 107.44C73.2999 105.63 76.8899 107.06 78.9699 108.92C81.3399 111.03 81.4599 113.49 80.9699 113.45C80.8899 113.45 80.4099 113.63 80.1999 112.92C79.5499 110.69 78.6799 109.18 76.0899 108.23C73.1699 107.16 70.6899 107.88 70.7699 110.55C70.9299 113.66 71.8499 115.46 74.7499 115.64V115.65ZM56.5699 110.25C64.0699 110.73 65.6999 121.49 57.0199 119.65C50.6599 118.27 51.5099 112.19 52.0199 112.26C52.9199 112.38 51.2299 117.6 57.5699 118.78C65.3599 120.27 62.4199 111.65 56.0799 111.26C52.7899 111.04 51.3599 108.75 51.6399 105.2C52.2699 97.3102 63.5399 102.76 63.0699 107.91C63.0699 108 62.7699 108.44 62.6899 108.43C62.6099 108.42 62.0199 108.43 62.0599 107.6C62.2799 103.04 53.1699 99.5302 52.3499 105.26C51.8599 108.33 53.6699 110.06 56.5699 110.24V110.25ZM39.2599 112.52C41.4173 114.354 44.0226 115.582 46.8099 116.08C47.0099 116.08 47.3499 117.16 46.3899 116.88C45.7899 116.7 35.5599 115.49 35.5599 105.23C35.5599 97.2302 46.5599 100 46.6899 99.9902C46.8199 99.9802 46.7499 100.11 46.8099 100.17C47.0299 100.45 47.0299 100.7 46.2299 100.74C46.1299 100.74 36.6299 99.7402 36.6299 105.74C36.6299 108.5 37.1699 110.54 39.2599 112.51V112.52ZM32.9999 136.13C32.5599 131.71 31.9999 125.81 31.0599 118.13C64.0599 129.55 70.6799 132.13 97.4799 141.57C97.2399 149.64 97.2899 159.68 97.4799 165.37C58.4799 147.69 64.9999 151.92 32.9999 136.13ZM34.9999 119.13L103 136.37C103.4 136.27 103 136.37 108.61 134.8C108.85 136.13 109.13 137.51 109.45 138.93L97.6199 141C87.4599 137.44 52.5499 125.11 34.9999 119.11V119.13ZM97.7299 165.41C97.9099 159.41 97.9699 149.57 97.7299 141.59L109.55 139.45C110.68 143.91 111.96 149.26 112.13 152.38C98.1299 154.57 97.2799 154.84 112.13 152.66C112.35 157.42 111.51 155.75 111.07 158.82C99.2099 160.9 97.0699 161.38 111.07 159.12C111.027 159.519 111.027 159.921 111.07 160.32L113.97 161.09C113.97 160.32 115.03 160.22 119.04 162.2C123.05 164.18 125.68 163.43 124.54 162.2C123.66 161.2 121.08 160 119.78 157.69L137.92 154.63C139.176 155.384 140.326 156.302 141.34 157.36C144.57 160.44 147.34 160.52 146.6 159.01C146.07 157.89 144.16 156.08 143.49 153.69C152.02 152.23 158.02 151.16 161.44 150.69C163.99 150.36 165.8 149.69 160.36 150.52C156.87 151.07 151.25 151.99 143.36 153.3C142.94 151.4 143.53 149.68 144.25 147.83C154.25 146.31 155.99 146.03 165.09 144.61C172.55 143.43 172.22 143.52 172.21 143.4C172.205 143.381 172.193 143.364 172.177 143.353C172.16 143.342 172.14 143.337 172.12 143.34L165.05 144.34C155.14 145.78 153.13 146.09 144.41 147.4C145.294 145.345 146.296 143.341 147.41 141.4C148.08 140.13 151.61 131.86 151.66 131.76L177.48 127C176.31 138.94 175.79 152.07 175.79 152.17L145.7 157.27C146.099 157.776 146.46 158.311 146.78 158.87C147.53 160.48 145.17 161.14 141.56 157.97L123.49 161C123.917 161.296 124.315 161.631 124.68 162C124.821 162.119 124.922 162.28 124.967 162.46C125.012 162.639 124.999 162.828 124.93 163C124.06 164.68 119.64 162.73 117.93 161.93L97.7299 165.41ZM179.82 173.89C168.37 177.76 138.94 187.89 119.29 194.81L117.92 171.54L179.92 154.16C179.9 157.4 179.83 167.37 179.8 173.87L179.82 173.89Z" fill="#1A2A56"/>
<path d="M58.5797 164.51C57.6397 166.83 56.9897 168.39 56.3697 169.81C57.5727 169.86 58.759 170.11 59.8797 170.55C59.4397 168.62 58.8497 165.82 58.5797 164.51ZM113.58 20.8703C113.96 21.0003 114.01 20.4503 114.16 20.0603C114.185 20.0225 114.202 19.9795 114.209 19.9344C114.216 19.8894 114.213 19.8434 114.2 19.7997C114.187 19.756 114.164 19.7156 114.134 19.6816C114.104 19.6475 114.066 19.6205 114.024 19.6026C113.983 19.5846 113.937 19.5761 113.892 19.5777C113.846 19.5793 113.801 19.5909 113.761 19.6116C113.72 19.6324 113.685 19.6619 113.657 19.698C113.629 19.7341 113.61 19.7758 113.6 19.8203C113.44 20.2303 113.2 20.7403 113.58 20.8703ZM119.59 22.3403C119.72 21.9403 120.01 21.5003 119.65 21.3403C119.29 21.1803 119.16 21.7103 119.02 22.1403C119 22.3003 119.45 22.7503 119.59 22.3403ZM113.87 26.3103C114 26.3703 114.07 26.1703 113.94 26.1203C113.64 25.8818 113.399 25.5772 113.236 25.2303C113.073 24.8834 112.992 24.5035 113 24.1203C113.004 24.0927 112.998 24.0647 112.983 24.041C112.968 24.0172 112.946 23.9993 112.92 23.9903C112.71 23.9903 112.56 24.7103 112.63 25.1203C112.704 25.415 112.86 25.6829 113.079 25.8933C113.298 26.1037 113.572 26.2482 113.87 26.3103ZM117.67 23.9303C117.9 23.7803 118.16 20.4603 117.91 20.4303C117.66 20.4003 117.33 23.1103 117.3 23.4303C114.08 22.6003 117.37 24.1303 117.67 23.9303Z" fill="#1A2A56"/>
</svg>
