<svg width="200" height="200" viewBox="0 0 200 200" fill="none" xmlns="http://www.w3.org/2000/svg">
<path fill-rule="evenodd" clip-rule="evenodd" d="M83.4892 12.2128C101.069 11.4289 110.427 17.0969 119.003 23.1316C108.131 35.4812 106.959 52.1941 111.424 64.7459C121.287 92.4699 157.61 102.724 180.55 80.8009C187.065 74.574 190.599 66.5614 192.119 61.0816C195.74 71.3175 195.98 82.4853 192.743 92.9198C191.22 97.9968 189.045 102.185 186.878 106.354C184.552 110.832 182.237 115.288 180.754 120.801C178.964 127.456 180.361 133.332 181.829 139.508C183.906 148.242 186.125 157.574 179.673 170.552C174.098 181.768 160.294 186.896 147.856 187.228C136.041 187.543 124.14 181.299 115.074 176.542C111.916 174.885 109.103 173.409 106.756 172.453C95.8687 168.018 88.6623 173.936 80.9347 180.282L80.9341 180.283H80.9335L80.9319 180.285H80.9309L80.9305 180.286H80.9296L80.9292 180.287C79.8079 181.208 78.6753 182.138 77.5192 183.046C71.1472 188.053 36.1942 207.311 13.5692 170.37C8.32414 161.816 -0.618859 139.375 9.86914 117.27C14.8714 106.728 20.9576 101.539 26.3704 96.9241C32.6927 91.5341 38.0965 86.9272 39.7822 75.4869C40.4278 71.1043 40.2517 66.6645 40.0724 62.1449C39.7166 53.1735 39.3484 43.8881 45.3692 34.1128C49.4364 27.6129 55.0418 22.2148 61.6903 18.3953C68.3387 14.5758 75.8254 12.4524 83.4892 12.2128ZM64.8645 80.462C66.5168 79.6661 69.1198 78.4124 69.8232 78.1208C69.9012 78.0967 69.985 78.0987 70.0619 78.1263C70.1387 78.1539 70.2046 78.2056 70.2495 78.2738C70.2943 78.342 70.3159 78.423 70.3108 78.5045C70.3057 78.586 70.2742 78.6637 70.2212 78.7258C69.7922 79.1558 65.2022 81.7168 64.5022 82.1038C64.6718 82.3195 65.2049 82.6896 65.8088 83.1088C66.3193 83.4632 66.8804 83.8528 67.3152 84.2138C68.4593 85.1603 68.4719 85.3078 68.4962 85.5942C68.4983 85.6179 68.5004 85.6426 68.5032 85.6688C68.5077 85.7051 68.5043 85.7419 68.4932 85.7767C68.482 85.8116 68.4634 85.8436 68.4387 85.8705C68.414 85.8974 68.3837 85.9186 68.3499 85.9327C68.3161 85.9467 68.2797 85.9533 68.2432 85.9519C68.1197 85.9461 67.9978 85.9207 67.8822 85.8768C67.001 85.3599 66.1795 84.7834 65.4867 84.2972C64.6032 83.6772 63.9289 83.204 63.6072 83.1889C63.3973 84.8186 63.2722 86.4581 63.2322 88.1008C63.1932 88.7318 63.1572 89.1269 62.9172 89.3009C62.8138 89.3875 62.6857 89.4392 62.5512 89.4488C62.1002 89.4488 62.0722 88.8189 62.0612 88.3699C62.0232 86.8109 62.2382 84.0028 62.2972 83.2698C62.1462 83.3358 61.9032 83.4568 61.5032 83.6698C60.0243 84.4524 59.1979 84.9339 58.7087 85.219L58.7081 85.2193C58.0178 85.6216 57.9993 85.6324 57.7652 85.5458C57.6876 85.5199 57.6194 85.4717 57.5689 85.4074C57.5184 85.343 57.4879 85.2653 57.4812 85.1838C57.4164 84.402 59.6057 83.2363 61.1203 82.43C61.382 82.2907 61.6239 82.1618 61.8302 82.0478L61.0992 81.5357C57.674 79.1364 57.2115 78.8125 57.2293 78.5175C57.2321 78.4715 57.2466 78.4262 57.2633 78.3738L57.2652 78.3678C57.5985 77.3213 59.4483 78.7066 60.9591 79.8379C61.5833 80.3054 62.1497 80.7296 62.5272 80.9208C62.5212 80.5738 62.5662 79.5858 62.8352 76.5998C62.9734 75.0643 62.9563 73.886 62.9437 73.0155C62.9237 71.6308 62.9149 71.0251 63.5602 70.9999C63.7043 71.0115 63.8414 71.0671 63.9528 71.1592C64.0643 71.2514 64.1447 71.3755 64.1832 71.5149C64.2174 74.6754 64.0839 77.8354 63.7832 80.9819C64.0318 80.8631 64.4058 80.6829 64.8495 80.4692L64.8566 80.4659L64.8627 80.4628L64.8645 80.462ZM171.53 112.318C171.587 112.256 171.621 112.177 171.628 112.093C171.635 112.009 171.614 111.926 171.568 111.855C171.523 111.784 171.455 111.731 171.375 111.703C171.296 111.675 171.21 111.675 171.13 111.701C170.334 112.03 167.129 113.578 165.595 114.318L165.593 114.319L165.09 114.562C165.391 111.415 165.524 108.255 165.49 105.094C165.451 104.955 165.37 104.831 165.259 104.739C165.148 104.647 165.011 104.592 164.867 104.58C164.222 104.605 164.231 105.211 164.252 106.593C164.264 107.464 164.282 108.643 164.143 110.18C163.874 113.164 163.83 114.153 163.836 114.5C163.458 114.31 162.89 113.884 162.264 113.415C160.755 112.284 158.907 110.899 158.573 111.948L158.57 111.956C158.554 112.008 158.539 112.053 158.537 112.099C158.518 112.394 158.983 112.719 162.457 115.15L163.138 115.627C162.95 115.731 162.728 115.848 162.485 115.977C160.99 116.771 158.723 117.975 158.789 118.764C158.805 118.85 158.844 118.931 158.902 118.997C158.959 119.063 159.034 119.112 159.117 119.14C159.2 119.168 159.289 119.173 159.375 119.154C159.461 119.136 159.54 119.095 159.605 119.036C159.856 118.836 163.205 117.022 163.705 116.783C163.701 116.831 163.696 116.889 163.69 116.954L163.689 116.961C163.574 118.248 163.189 122.539 164.126 122.539C164.394 122.539 164.406 122.377 164.491 121.2V121.199V121.198H164.492C164.539 120.544 164.609 119.579 164.758 118.156C164.803 117.729 164.846 116.723 164.846 116.723C165.025 116.812 165.21 116.935 165.487 117.118C165.853 117.36 166.377 117.708 167.257 118.223C167.433 118.288 167.687 118.354 167.814 118.217C167.893 118.132 167.885 118.06 167.876 117.979C167.874 117.964 167.872 117.949 167.871 117.934C167.846 117.595 167.739 117.427 166.69 116.558C166.348 116.275 166.103 116.088 165.897 115.93C165.818 115.87 165.744 115.813 165.673 115.758C166.126 115.529 171.09 112.758 171.53 112.318ZM86.7689 30.4176C86.7869 30.4535 86.7976 30.4927 86.8002 30.5327C86.8152 31.1517 81.7002 36.2997 79.5162 38.2087C79.7887 38.5402 81.4724 40.0662 82.9412 41.3972L82.949 41.4043C83.1969 41.629 83.4386 41.848 83.6662 42.0547C85.1412 43.3927 85.1122 43.5147 85.0722 43.6817C85.059 43.7284 85.0345 43.7711 85.0008 43.806C84.9672 43.8409 84.9254 43.8669 84.8792 43.8817C84.3222 44.0387 79.9102 40.5217 78.5792 39.1817C78.356 40.1614 78.0101 43.8458 77.7773 46.3258C77.6534 47.6455 77.5615 48.6245 77.5372 48.6728C77.5201 48.7074 77.4953 48.7375 77.4645 48.7609C77.4338 48.7842 77.3981 48.8001 77.3602 48.8073C77.3222 48.8145 77.2832 48.8128 77.246 48.8022C77.2089 48.7917 77.1747 48.7727 77.1462 48.7467C76.3732 48.0465 76.7639 44.4774 77.0429 41.9295L77.0432 41.9269C77.1206 41.2195 77.1894 40.591 77.2222 40.1247C77.0167 40.2794 76.7185 40.5245 76.177 40.9696C75.9095 41.1894 75.5826 41.4581 75.1782 41.7887C74.3612 42.4601 74.3152 42.5581 74.2004 42.8029C74.1757 42.8556 74.1477 42.9152 74.1082 42.9887C73.6702 43.8277 72.6292 42.9848 73.1082 41.9968C73.401 41.394 73.5568 41.2665 75.7572 39.4655C76.1342 39.157 76.5712 38.7993 77.0792 38.3817C77.2042 38.2787 77.3242 38.1797 77.3952 38.1137C77.2902 38.0227 72.0242 33.0477 71.9902 32.9057C71.8712 32.4617 72.0252 32.2797 72.1712 32.2057C73.0482 31.7577 77.0262 35.7988 77.6872 36.5248C77.6962 36.4247 77.7042 36.3027 77.7112 36.1887C77.7356 35.7914 77.8212 35.0102 77.938 33.9434L77.9383 33.9408C78.0558 32.868 78.2049 31.5067 78.3552 29.9567L78.3555 29.9542C78.5742 27.7117 78.5874 27.5767 79.0622 27.5017C79.8566 27.371 79.5257 30.446 79.1309 34.1153C79.0306 35.0467 78.9263 36.0165 78.8352 36.9817C82.3531 34.0505 84.1539 32.2637 85.1557 31.2696C86.1707 30.2625 86.3656 30.0691 86.6952 30.3237C86.7258 30.3498 86.7509 30.3817 86.7689 30.4176ZM126.411 120.654C125.314 121.247 125.256 121.272 125.058 121.355C124.919 121.414 124.71 121.503 124.02 121.84C123.603 122.044 123.06 122.323 122.576 122.57C122.034 122.848 121.567 123.087 121.438 123.14C121.47 122.606 121.645 119.263 121.56 118.967C121.615 118.741 121.647 118.51 121.653 118.277C121.656 118.115 121.597 117.957 121.488 117.837C121.379 117.717 121.228 117.643 121.066 117.63C120.342 117.583 120.314 118.43 120.317 119.152C120.321 120.03 120.285 120.535 120.252 121.012C120.219 121.479 120.188 121.918 120.198 122.652C120.147 122.625 120.089 122.594 120.025 122.56L119.922 122.505L119.92 122.504C118.901 121.956 116.686 120.767 115.964 121.223C115.889 121.279 115.83 121.355 115.795 121.442C115.759 121.529 115.749 121.624 115.764 121.717C115.779 121.81 115.819 121.897 115.88 121.968C115.94 122.04 116.02 122.093 116.109 122.123C118.49 123.225 119.146 123.542 119.477 123.702C119.669 123.795 119.751 123.835 119.999 123.945C119.866 124.033 119.715 124.126 119.532 124.239C119.128 124.488 118.565 124.834 117.689 125.445C116.613 126.201 117.289 127.506 117.868 126.972C118.566 126.376 119.33 125.863 120.146 125.443C120.179 129.092 120.541 129.418 120.68 129.543C120.716 129.578 120.758 129.606 120.805 129.624C120.852 129.642 120.902 129.65 120.952 129.647C121.003 129.645 121.052 129.632 121.097 129.61C121.142 129.588 121.182 129.556 121.214 129.518C121.339 129.36 121.315 129.165 121.242 128.577C121.233 128.506 121.224 128.43 121.214 128.348C121.251 128.207 121.279 127.419 121.307 126.611C121.339 125.704 121.372 124.771 121.42 124.701C121.475 124.706 121.528 124.723 121.575 124.752C122.5 125.208 123.2 125.56 123.734 125.829C125.087 126.509 125.364 126.648 125.488 126.563C125.52 126.542 125.541 126.505 125.569 126.458L125.585 126.431C125.998 125.708 124.192 124.754 123.089 124.17C122.939 124.091 122.802 124.018 122.685 123.954C124.032 123.228 125.336 122.427 126.593 121.554C127.33 120.926 126.736 120.476 126.411 120.654ZM153.032 149.384C153.05 149.42 153.061 149.46 153.063 149.5C153.084 150.119 147.974 155.261 145.781 157.178C146.042 157.491 147.671 158.968 149.248 160.397L149.249 160.398L149.252 160.401C149.48 160.608 149.707 160.814 149.929 161.015C151.403 162.353 151.374 162.474 151.334 162.642C151.321 162.689 151.297 162.732 151.263 162.766C151.229 162.801 151.187 162.827 151.141 162.842C150.589 162.989 146.173 159.483 144.841 158.142C144.614 159.13 144.259 162.912 144.026 165.394V165.396C143.907 166.663 143.82 167.59 143.798 167.634C143.781 167.668 143.756 167.698 143.725 167.721C143.694 167.744 143.659 167.76 143.621 167.767C142.524 167.938 143.058 163.067 143.347 160.426L143.348 160.425V160.419C143.411 159.842 143.463 159.372 143.483 159.085C143.257 159.256 142.867 159.576 142.325 160.022L142.323 160.024L141.958 160.324C141.796 160.457 141.623 160.599 141.439 160.749C140.621 161.418 140.577 161.512 140.46 161.762C140.436 161.814 140.408 161.872 140.37 161.944C139.931 162.783 138.889 161.941 139.37 160.952C139.671 160.334 139.708 160.303 142.428 158.083L142.845 157.743L143.37 157.314L143.399 157.29C143.46 157.24 143.52 157.191 143.57 157.148C143.604 157.119 143.634 157.093 143.659 157.07C143.559 156.99 138.287 152.004 138.253 151.86C138.134 151.417 138.288 151.234 138.434 151.16C139.314 150.713 143.27 154.743 143.95 155.48C144.084 153.944 144.173 153.133 144.282 152.13C144.369 151.332 144.47 150.413 144.617 148.91C144.837 146.666 144.851 146.532 145.325 146.456C146.12 146.332 145.789 149.408 145.394 153.074C145.294 154.005 145.189 154.974 145.098 155.938C145.159 155.877 145.348 155.718 145.643 155.471C146.675 154.606 148.998 152.658 151.641 150.023L151.642 150.022C152.398 149.267 152.627 149.038 152.957 149.291C152.988 149.317 153.014 149.348 153.032 149.384ZM45.4542 125.4C45.6836 125.385 45.9201 125.267 46.2379 125.109C47.2404 124.61 49.0528 123.709 54.0092 124.34C54.451 124.357 54.7632 124.415 55.0084 124.461C55.4997 124.553 55.7219 124.594 56.1782 124.153C56.8142 123.553 61.2012 117.753 61.2632 117.664C61.6321 117.154 62.2163 116.507 62.8076 115.851C64.1286 114.386 65.485 112.883 64.5552 112.792C62.7561 112.486 60.9183 112.486 59.1192 112.792C57.6537 113.042 56.2219 113.461 54.8522 114.039C51.6197 115.694 48.8522 118.131 46.8012 121.128C46.1012 122.243 45.4952 123.409 44.9112 124.588C44.8654 124.677 44.8443 124.776 44.8499 124.876C44.8555 124.975 44.8877 125.071 44.9432 125.154C44.9986 125.237 45.0753 125.304 45.1651 125.347C45.255 125.39 45.3548 125.408 45.4542 125.4ZM63.6704 141.092C63.7611 141.142 63.8349 141.217 63.8822 141.309C64.1648 141.933 62.9969 143.37 57.5067 150.128C53.7879 154.705 48.0857 161.724 39.5082 172.583C38.9448 173.296 38.4984 173.871 38.1407 174.331L38.1402 174.332C36.847 175.998 36.713 176.171 36.3942 175.974C36.2922 175.908 36.1882 175.774 36.2782 175.474C37.1852 172.501 62.4382 141.031 63.3732 141.031C63.4761 141.021 63.5796 141.042 63.6704 141.092ZM45.0542 172.418C44.0872 173.601 45.0902 174.656 45.7822 173.644C46.2332 172.834 49.4182 171.072 52.9952 171.199C53.4272 171.215 53.5382 171.368 53.3642 171.821C52.9131 172.986 50.4581 174.504 49.4602 175.121C49.2392 175.258 49.0896 175.35 49.0492 175.385C48.8691 175.509 48.7227 175.676 48.6233 175.87C48.524 176.065 48.4748 176.281 48.4803 176.5C48.4857 176.718 48.5457 176.932 48.6546 177.122C48.7636 177.311 48.9181 177.47 49.1042 177.585C49.3339 177.754 49.5677 177.917 49.7921 178.074C50.5935 178.635 51.2764 179.113 51.2342 179.432C51.1522 180.051 48.8872 180.992 44.7342 182.514C44.0472 182.766 44.1502 183.614 45.7792 183.614C47.5642 183.489 49.2916 182.93 50.8112 181.985C55.1587 179.569 52.2675 177.783 50.7408 176.84C50.4246 176.644 50.1669 176.485 50.0442 176.364C50.0738 176.343 50.1616 176.296 50.2942 176.225C51.2112 175.732 54.2697 174.088 54.9992 172.056C56.4732 167.949 47.5002 169.43 45.0542 172.418ZM29.3542 161.786C30.5342 157.181 34.1142 153.893 36.1542 158.041C37.5762 160.93 36.4712 164.518 35.2312 164.413C35.1464 164.411 35.0634 164.388 34.9889 164.348C34.9144 164.307 34.8504 164.25 34.8022 164.18C34.7392 164.017 34.7121 163.842 34.7228 163.667C34.7335 163.493 34.7817 163.322 34.8642 163.168C35.7662 160.505 34.4572 157.063 33.2442 158.139C31.6362 159.568 30.3682 162.914 30.9362 164.207C31.1782 164.76 31.1682 165.579 30.5892 165.76C29.8192 166.003 29.5602 165.4 29.3342 164.87C28.6682 163.327 27.3822 163.137 26.6342 163.77C25.7504 164.684 25.2217 165.884 25.1432 167.153C25.1432 167.614 25.4757 167.897 25.7591 168.138C26.0361 168.374 26.2662 168.57 26.0932 168.853C26.0348 168.942 25.9479 169.009 25.8467 169.042C25.7455 169.075 25.636 169.073 25.5362 169.036C24.9787 168.914 24.4838 168.595 24.1422 168.138C23.8006 167.681 23.6351 167.116 23.6762 166.547C23.6558 165.885 23.7929 165.227 24.0762 164.628C24.7192 162.908 25.5652 162.041 26.9052 161.728C27.682 161.561 28.4934 161.708 29.1622 162.137L29.2542 162.179C29.2807 162.046 29.3141 161.915 29.3542 161.786ZM71.2452 148.1C70.7279 146.846 69.8871 147.681 68.6629 148.897C68.1691 149.388 67.6128 149.941 66.9902 150.443C64.9412 152.092 58.8022 158.036 56.9142 159.869C50.4612 166.131 50.5902 166.297 50.7862 166.549C50.8104 166.583 50.8424 166.61 50.8795 166.629C50.9165 166.648 50.9576 166.658 50.9992 166.657C52.1282 166.657 70.5732 149.336 71.2242 148.331C71.2462 148.297 71.2596 148.258 71.2632 148.218C71.2669 148.178 71.2607 148.137 71.2452 148.1ZM54.8079 140.546L54.8071 140.547C50.7428 146.348 44.5255 155.221 43.5922 156.923C43.3382 157.393 42.6902 157.265 42.8552 156.577C43.3762 154.431 55.5362 136.366 57.3872 134.893C57.4725 134.795 57.589 134.729 57.717 134.706C57.8451 134.684 57.977 134.706 58.0908 134.769C58.2046 134.832 58.2933 134.932 58.3422 135.052C58.391 135.173 58.397 135.307 58.3592 135.431C58.3332 135.514 56.8396 137.646 54.8079 140.546ZM107.2 107.314C105.281 106.533 103.452 105.547 101.745 104.374C98.786 102.224 96.214 99.5862 94.1392 96.5739C93.8122 96.0372 93.5574 95.6038 93.3539 95.2575C92.8316 94.3691 92.6467 94.0547 92.4458 94.0441C92.3358 94.0383 92.2209 94.1238 92.0431 94.256L92.0082 94.2819C82.0233 100.244 73.1059 107.835 65.6252 116.739C64.1442 118.539 64.1562 118.584 64.4552 119.097C68.7812 126.544 79.2942 134.756 86.7362 138.969C87.2792 139.281 87.4472 139.278 92.8492 132.714C99.0425 125.19 104.13 116.82 107.957 107.858C107.956 107.396 107.78 107.388 107.551 107.379C107.442 107.374 107.321 107.369 107.2 107.314ZM90.0282 120.633C86.8352 120.201 84.9932 119.408 83.1792 116.723C78.7272 110.123 85.9912 101.269 93.7102 104.806C101.143 108.212 99.7222 120.159 90.0282 120.633ZM83.8971 140.431C84.9971 141.045 85.2173 141.168 84.8872 141.533L84.7988 141.629C83.9236 142.58 80.4503 146.356 79.1392 146.725C73.8152 145.849 63.6442 137.06 60.1802 132.166C59.0855 130.815 58.2305 129.285 57.6522 127.645L57.603 127.531L57.56 127.431C57.3072 126.846 57.2556 126.727 57.4022 126.529C58.7582 124.705 61.6502 121.164 61.6732 121.142C62.1971 120.534 62.5056 120.99 63.421 122.343C64.8455 124.447 67.7396 128.724 75.2012 134.542C79.8483 138.168 82.5412 139.673 83.8971 140.431ZM113.128 87.9788C113.117 87.7702 113.062 87.5664 112.965 87.3812C112.868 87.196 112.733 87.0338 112.568 86.9058C112.403 86.7778 112.212 86.6871 112.008 86.6396C111.805 86.5922 111.594 86.5892 111.389 86.631C106.196 87.231 102.401 88.3389 95.0892 92.1038C94.6892 92.3109 94.7102 92.4619 95.4072 93.5039C98.3822 97.9439 101.293 101.688 107.437 104.36C107.725 104.485 107.976 104.596 108.195 104.692C109.599 105.309 109.701 105.354 109.837 105.11C112.478 100.247 113.48 91.0289 113.128 87.9788ZM85.8616 117.723C84.9815 117.022 84.2865 116.116 83.8372 115.085C83.2966 113.821 83.1456 112.424 83.4035 111.073C83.6614 109.722 84.3165 108.479 85.2849 107.503C86.2533 106.526 87.491 105.861 88.8396 105.592C90.1882 105.323 91.5864 105.463 92.8552 105.993C93.8903 106.434 94.8016 107.122 95.5097 107.996C96.2178 108.87 96.701 109.904 96.9173 111.008C97.1335 112.112 97.0761 113.253 96.7502 114.329C96.4242 115.406 95.8396 116.387 95.0473 117.186C94.255 117.984 93.2792 118.577 92.2052 118.912C91.1311 119.247 89.9914 119.313 88.8856 119.106C87.7798 118.899 86.7416 118.424 85.8616 117.723ZM95.1234 113.881C95.4633 112.96 95.5408 111.962 95.3472 111C95.1814 110.19 94.8287 109.429 94.3172 108.779C93.8057 108.129 93.1495 107.608 92.4008 107.256C91.6522 106.904 90.8318 106.732 90.005 106.754C89.1781 106.775 88.3677 106.989 87.6382 107.379C86.7739 107.845 86.0559 108.541 85.5642 109.39C85.0725 110.24 84.8263 111.21 84.8533 112.191C84.8802 113.172 85.1792 114.127 85.7168 114.948C86.2544 115.769 87.0095 116.425 87.898 116.843C88.7865 117.26 89.7735 117.422 90.7489 117.312C91.7242 117.201 92.6497 116.821 93.4221 116.216C94.1945 115.61 94.7835 114.801 95.1234 113.881ZM92.7792 137.487C92.3061 137.395 91.6648 138.203 90.7024 139.416C90.1045 140.169 89.3827 141.078 88.5002 142.025C88.4702 142.057 88.4783 142.048 88.4883 142.037C88.5329 141.987 88.6153 141.896 85.5132 145.225C85.1598 145.603 84.8829 145.872 84.6194 146.128C84.1785 146.557 83.7747 146.948 83.1132 147.752C82.6298 148.328 82.8587 148.944 83.1519 149.734C83.2881 150.101 83.4382 150.505 83.5372 150.96C83.6778 151.603 83.7772 152.046 83.8477 152.36C83.9766 152.934 84.0084 153.075 84.0173 153.218C84.0202 153.265 84.0206 153.311 84.0213 153.374C84.0234 153.59 84.0275 153.992 84.1432 155.222C84.165 156.725 83.8423 157.509 83.638 158.006C83.4497 158.463 83.3621 158.676 83.7382 158.981C84.2158 159.371 84.2602 159.336 86.9338 157.248L87.0262 157.176C95.1922 150.782 94.5142 137.823 92.7792 137.487ZM89.3332 110.274C90.2827 109.788 91.284 109.412 92.3182 109.151C92.5012 109.116 92.6244 109.059 92.7221 109.013C92.9217 108.919 93.0142 108.876 93.2902 109.181C93.8562 109.831 94.6992 111.134 93.8812 111.392C90.9513 112.318 90.952 112.319 91.2052 112.712C91.2764 112.822 91.3676 112.964 91.4192 113.166C91.4609 113.319 91.457 113.48 91.4082 113.631C91.3593 113.781 91.2676 113.914 91.1442 114.013C90.2852 114.572 89.3627 115.028 88.3962 115.369C87.6262 115.564 86.8072 115.341 86.1832 113.621C86.0561 113.272 86.2303 113.232 86.743 113.114C87.1618 113.018 87.8065 112.871 88.6972 112.46C89.7703 111.967 89.5325 111.597 89.2907 111.222C89.1028 110.93 88.9125 110.634 89.3332 110.274Z" fill="#1A2A56"/>
<path d="M186.478 25.0557C172.858 6.11868 147.883 2.73768 128.587 13.5667C99.8121 29.7137 99.7501 76.6167 134.632 90.7897C147.641 96.0757 165.556 95.0287 177.487 85.5527C183.981 80.3947 188.379 73.3747 190.953 68.3137C197.269 53.4997 194.115 35.6727 186.478 25.0557ZM193.037 56.0187C192.937 59.9087 189.655 72.0987 180.55 80.8007C157.61 102.724 121.287 92.4697 111.424 64.7457C105.687 48.6187 109.256 25.6227 130.748 13.8377C154.467 0.831684 186.587 12.7317 192.165 41.4157C193.221 46.2073 193.516 51.1355 193.037 56.0187Z" fill="#1A2A56"/>
<path d="M155.161 63.7835C152.201 62.7175 149.375 64.8414 147.826 67.2684C144.595 72.3334 145.706 79.5685 151.765 79.2025C153.524 79.2025 156.943 76.3314 158.03 72.2264C159.093 68.2154 157.492 64.6225 155.161 63.7835ZM157.631 70.1245C157.278 74.4245 154.131 77.8385 152.167 78.2245C150.894 78.4735 154.067 75.9745 154.583 70.7445C155.204 64.3875 151.249 65.3125 152.059 64.5765C152.547 64.2954 153.116 64.1895 153.672 64.2765C155.362 63.9105 157.938 66.3995 157.631 70.1245Z" fill="#1A2A56"/>
<path d="M130.246 52.3384C127.646 49.4694 122.685 49.8524 120.183 56.2514C117.892 62.1094 123.263 70.3514 129.748 63.2364C131.982 60.7864 132.62 54.9624 130.246 52.3384ZM128.505 52.0864C127.707 52.3642 126.999 52.8524 126.456 53.4994C125.407 54.6534 124.677 56.0605 124.337 57.5824C124.285 57.9574 124.037 58.2824 124.011 58.6694C123.937 59.5824 123.644 61.9494 124.291 63.1694C124.591 63.7344 124.784 64.3824 125.401 64.7264C125.625 64.8514 125.57 65.1144 125.401 65.1094C124.651 65.2022 123.89 65.0863 123.201 64.7744C119.964 62.8564 120.094 57.3004 122.089 54.5294C125.032 49.7394 129.163 51.6764 128.505 52.0864Z" fill="#1A2A56"/>
<path d="M148.727 28.373C146.713 27.097 142.127 27.584 139.64 28.451C133.707 30.517 130.601 35.069 134.149 37.633C137.169 39.816 144.384 37.807 147.498 35.682C151.112 33.215 151.16 29.915 148.727 28.373ZM134.649 35.527C134.249 36.15 134.396 36.506 134.013 36.076C133.288 35.261 133.635 34.022 134.746 32.72C138.553 28.259 146.235 27.695 148.401 29.184C148.963 29.5822 149.349 30.1819 149.48 30.858C149.61 31.5341 149.474 32.2345 149.101 32.813C148.943 33.049 148.22 32.444 147.849 32.142C145.222 29.999 136.742 32.263 134.649 35.527Z" fill="#1A2A56"/>
<path d="M166.58 49.5182C169.065 48.8832 169.243 46.4362 169.428 43.8852C169.167 41.2542 168.949 38.7552 166.76 37.2262C162.466 34.2272 160.441 48.4092 166.58 49.5182ZM165.22 37.7752C166.192 37.3702 167.36 38.5212 167.697 39.4152C169.847 45.1152 167.881 48.9152 166.426 48.6992C166.157 48.6582 166.085 48.5582 166.214 48.3172C167.174 46.5172 167.468 42.3862 165.873 39.2282C165.51 38.5102 164.93 38.4362 164.964 37.9572C164.962 37.7772 165.114 37.8192 165.22 37.7752Z" fill="#1A2A56"/>
<path d="M125.151 27.5556C125.33 25.6556 124.016 24.8026 122.579 25.1846C119.479 26.0086 116.41 31.0586 116.723 33.8846C117.263 38.7586 123.746 35.0536 125.151 27.5556ZM118.92 33.5426C118.757 34.0554 118.697 34.5955 118.744 35.1316C118.683 35.4876 117.932 35.2316 117.685 34.6166C116.364 31.3516 122.297 24.2286 124.017 26.1446C125.232 27.4966 122.561 25.6806 119.361 32.2056C119.212 32.5096 119.042 33.2316 118.92 33.5426Z" fill="#1A2A56"/>
<path d="M175.881 62.2514C174.466 64.3024 173.915 67.3394 175.834 68.5274C178.144 69.9564 182.026 66.9494 182.319 62.9274C182.586 59.2724 178.376 58.6344 175.881 62.2514ZM180.33 66.1114C178.698 68.0494 177.237 68.2494 177.014 68.1714C176.569 68.0144 176.644 67.7314 176.914 67.6054C177.787 67.0353 178.496 66.2482 178.973 65.3214C181.106 61.8004 179.185 60.7014 180.187 60.6644C181.531 60.6154 182.2 63.8994 180.33 66.1114Z" fill="#1A2A56"/>
<path d="M186.4 40.6782C184.416 41.0782 182.153 45.3092 183.379 48.8962C185.012 53.6752 189.762 50.0862 189.487 44.8572C189.309 41.3992 187.623 40.4302 186.4 40.6782ZM185.372 50.2992C184.331 49.9312 185.587 49.3552 185.921 48.0992C185.961 47.9492 187.295 44.4482 185.94 42.4992C185.521 41.8992 185.493 41.9342 185.94 41.6522C186.175 41.5431 186.431 41.4879 186.69 41.4906C186.948 41.4933 187.203 41.5538 187.436 41.6677C187.668 41.7816 187.872 41.946 188.032 42.1488C188.193 42.3517 188.306 42.5879 188.364 42.8402C189.639 47.7872 186.9 50.8332 185.372 50.2992Z" fill="#1A2A56"/>
<path d="M165.055 18.0171C162.372 19.7171 170.049 26.1601 172.966 24.0421C174.331 23.0511 172.587 20.8511 170.977 19.5831C169.574 18.4771 166.684 16.9851 165.055 18.0171ZM172.218 23.5461C171.818 23.7761 171.635 23.8331 170.928 22.8541C169.58 21.3581 167.889 20.2116 166 19.5131C165.65 19.4291 165.181 19.5571 165.3 19.0891C165.456 18.4681 165.767 18.5331 166.417 18.5171C169.314 18.4461 173.85 22.6191 172.218 23.5461Z" fill="#1A2A56"/>
<path d="M163.142 81.3124C162.975 81.5741 162.879 81.8742 162.861 82.1839C162.844 82.4936 162.906 82.8027 163.042 83.0814C163.825 84.2334 166.131 84.3164 167.894 84.0454C169.148 83.8534 169.394 83.5564 169.663 82.8894C171.015 79.6044 164.917 79.2404 163.142 81.3124ZM168.987 81.7724C168.82 83.8214 168.121 81.1224 164.64 82.2214C164.428 82.2884 164.07 82.5364 163.84 82.5844C163.091 82.7374 163.84 80.0844 167.848 80.8914C168.178 80.9584 169.048 81.4394 168.987 81.7724Z" fill="#1A2A56"/>
<path d="M129.909 76.9863C128.92 78.4393 132.327 83.0763 134.782 82.6943C138.589 82.0993 132.1 73.7683 129.909 76.9863ZM133.88 81.5353C133.724 81.2224 133.548 80.9201 133.352 80.6303C132.886 79.8464 132.294 79.145 131.6 78.5543C131.076 78.0483 130.588 78.1983 130.619 77.5983C130.635 77.2763 130.693 77.2073 131.032 77.1983C132.91 77.1373 134.347 79.2643 135.151 81.1683C135.461 81.8993 134.173 82.3673 133.88 81.5353Z" fill="#1A2A56"/>
<path d="M149.148 15.7926C155.974 16.2826 153.005 9.10053 147.123 12.6806C145.423 13.7156 145.52 15.5326 149.148 15.7926ZM152.091 13.0926C152.46 13.4166 152.259 13.7816 151.947 14.0926C151.372 14.6656 151.578 14.0666 150.477 13.9656C147.89 13.7276 148.369 15.0036 147.706 14.7656C144.733 13.6996 150.334 11.5426 152.091 13.0896V13.0926Z" fill="#1A2A56"/>
<path d="M150.214 47.8323C148.22 48.7533 148.171 49.4643 147.858 50.5253C147.684 51.1143 148.068 51.5862 148.464 52.0082C148.734 52.2952 149.153 52.3022 149.706 52.3982C150.293 52.4128 150.876 52.2968 151.413 52.0587C151.95 51.8206 152.428 51.4662 152.811 51.0212C153.536 50.4472 154.001 49.0093 153.447 48.3533C153.044 47.9179 152.506 47.6302 151.92 47.5357C151.334 47.4413 150.734 47.5457 150.214 47.8323ZM152.765 49.1713C152.765 50.4233 151.737 49.1492 150.214 50.2452C149.369 50.8542 149.254 51.4453 148.989 51.3043C148.489 51.0463 148.489 49.5652 150.214 48.6672C151.763 47.8602 152.934 48.4673 152.765 49.1713Z" fill="#1A2A56"/>
</svg>
