<svg width="200" height="200" viewBox="0 0 200 200" fill="none" xmlns="http://www.w3.org/2000/svg">
<path d="M149.38 87.8901C150.243 88.3154 151.188 88.5474 152.15 88.5701C152.204 88.5639 152.256 88.5471 152.304 88.5205C152.351 88.494 152.393 88.4583 152.426 88.4155C152.46 88.3727 152.485 88.3236 152.499 88.2712C152.513 88.2188 152.517 88.164 152.51 88.1101C152.43 87.4801 151.72 88.0201 149.75 87.1101L149.85 86.3701C149.9 86.1601 149.65 85.8201 149.38 85.9201C149.11 86.0201 149.04 86.3401 148.96 86.9201C148.88 87.5001 148.84 87.6201 149.38 87.8901ZM45.0001 90.7301C46.2034 90.4029 47.3335 89.8498 48.3301 89.1001C48.7201 88.8001 48.5901 88.1001 48.4801 87.7001C48.4488 87.5963 48.3802 87.5078 48.2877 87.4514C48.1951 87.3951 48.085 87.3749 47.9784 87.3947C47.8718 87.4145 47.7763 87.473 47.7102 87.5589C47.6441 87.6448 47.612 87.752 47.6201 87.8601C47.6391 88.0769 47.6793 88.2912 47.7401 88.5001C45.3701 90.2301 44.4501 89.8001 44.5901 90.5001C44.6212 90.58 44.6791 90.6466 44.7539 90.6886C44.8287 90.7306 44.9157 90.7452 45.0001 90.7301ZM42.2801 88.8801C44.2801 88.8801 43.6001 87.7001 43.0601 87.8801L42.2901 88.0001C41.6301 84.8701 42.1601 84.2101 41.5901 84.1901C41.5041 84.1846 41.4194 84.2128 41.354 84.2689C41.2886 84.3249 41.2477 84.4043 41.2401 84.4901C41.1695 85.7266 41.2602 86.9671 41.5101 88.1801C41.6201 88.7201 41.8201 88.8801 42.2801 88.8801ZM100.35 87.1601C100.92 87.1601 103.92 86.5101 104.43 86.4301C105.18 86.3001 106.07 86.0701 106.13 85.2601C106.13 84.7601 105.77 84.1801 105.36 84.4801C105.275 84.54 105.212 84.6265 105.181 84.726C105.15 84.8256 105.153 84.9326 105.19 85.0301C105.34 85.4201 105.02 85.3901 100.19 86.4401C100.101 86.4676 100.026 86.5274 99.9794 86.6078C99.9327 86.6882 99.918 86.7831 99.9382 86.8739C99.9583 86.9646 100.012 87.0444 100.088 87.0974C100.165 87.1505 100.258 87.1729 100.35 87.1601ZM34.5801 62.6801C34.8001 62.9301 35.3401 62.6801 35.1801 62.3001C34.1801 59.8601 32.3401 57.1401 31.1801 54.4601C31.0001 54.0301 30.6401 53.3001 30.2901 53.2601C30.2463 53.254 30.2016 53.26 30.161 53.2777C30.1204 53.2953 30.0855 53.3239 30.0601 53.3601C29.8401 53.6601 30.1601 54.4901 30.3101 54.8401C30.7701 55.8301 33.0001 60.8701 34.5801 62.6801ZM67.0001 58.4601C67.0188 58.5382 67.0577 58.61 67.1128 58.6684C67.1679 58.7268 67.2373 58.7698 67.3141 58.793C67.391 58.8163 67.4726 58.819 67.5508 58.801C67.6291 58.7829 67.7012 58.7447 67.7601 58.6901C68.5857 57.9383 69.3359 57.1077 70.0001 56.2101C73.0001 65.8101 73.0001 66.1501 73.4701 66.1501C73.5375 66.1482 73.6036 66.1319 73.6641 66.1022C73.7247 66.0725 73.7781 66.0301 73.8207 65.9779C73.8634 65.9258 73.8944 65.865 73.9115 65.7998C73.9287 65.7346 73.9316 65.6665 73.9201 65.6001C72.8001 62.0601 71.6201 58.6001 70.6001 55.0701C70.5772 54.9824 70.529 54.9034 70.4613 54.843C70.3937 54.7826 70.3098 54.7435 70.22 54.7307C70.1303 54.7179 70.0387 54.7319 69.9569 54.7709C69.8751 54.8099 69.8066 54.8723 69.7601 54.9501C69.1858 55.8534 68.5153 56.6916 67.7601 57.4501C67.1601 54.7101 65.7601 48.4501 65.7601 48.4501C65.7349 48.3493 65.6707 48.2627 65.5816 48.2092C65.4925 48.1558 65.3859 48.1399 65.2851 48.1651C65.1843 48.1903 65.0977 48.2545 65.0442 48.3436C64.9908 48.4327 64.9749 48.5393 65.0001 48.6401C65.3401 50.1901 66.7901 57.7701 67.0001 58.4601ZM14.9101 110.48C11.6901 108.94 8.82009 107.36 5.52009 105.62C4.88009 105.28 4.44009 106.45 5.44009 106.72C8.32125 108.518 11.3935 109.991 14.6001 111.11C15.0001 111.22 15.2801 110.7 14.9101 110.48ZM17.4701 87.3901C17.5388 87.4509 17.6245 87.4893 17.7157 87.5C17.8069 87.5107 17.8991 87.4933 17.9801 87.4501C18.6401 87.1301 17.7901 86.3401 18.1101 81.5901C26.2201 91.3801 25.7701 91.1301 26.1101 91.1301C26.1805 91.1345 26.2507 91.1187 26.3124 91.0845C26.3741 91.0503 26.4247 90.9992 26.4584 90.9372C26.492 90.8752 26.5072 90.8049 26.5022 90.7345C26.4972 90.6642 26.4722 90.5967 26.4301 90.5401C25.1601 88.9401 19.6001 82.0301 18.1201 80.1501C18.0644 80.0796 17.9897 80.0265 17.9048 79.9971C17.8199 79.9678 17.7284 79.9633 17.6411 79.9844C17.5537 80.0054 17.4742 80.0511 17.412 80.1159C17.3498 80.1807 17.3075 80.262 17.2901 80.3501C17.0868 82.1764 17.0533 84.0176 17.1901 85.8501C14.1901 83.1601 11.3201 80.3101 8.29009 77.6901C8.19836 77.6165 8.08362 77.5776 7.96603 77.5802C7.84845 77.5828 7.73555 77.6268 7.64718 77.7044C7.55881 77.782 7.50064 77.8883 7.48288 78.0046C7.46512 78.1209 7.48892 78.2397 7.55009 78.3401C8.73009 80.1701 15.3901 85.5001 17.4701 87.3901ZM96.3501 50.3001C96.3501 50.3982 96.3891 50.4924 96.4585 50.5617C96.5278 50.6311 96.622 50.6701 96.7201 50.6701C96.8182 50.6701 96.9123 50.6311 96.9817 50.5617C97.0511 50.4924 97.0901 50.3982 97.0901 50.3001C97.2615 46.6271 97.1076 42.946 96.6301 39.3001C96.6198 39.2039 96.5818 39.1128 96.5208 39.0377C96.4597 38.9627 96.3782 38.907 96.2861 38.8773C96.194 38.8477 96.0953 38.8454 96.0019 38.8707C95.9086 38.8961 95.8246 38.948 95.7601 39.0201C95.3101 39.6001 96.3901 41.4301 96.3501 50.3001ZM123.41 67.6701C131.02 54.8301 130.61 55.4701 130.55 55.2401C130.38 54.6601 129.9 54.9401 126.05 56.1001C127.05 52.5501 128.3 48.7601 129.13 45.1701C129.147 45.054 129.121 44.9357 129.055 44.8384C128.989 44.7411 128.89 44.6718 128.776 44.6442C128.662 44.6166 128.541 44.6327 128.438 44.6893C128.336 44.746 128.258 44.839 128.22 44.9501C127.09 48.9501 125.97 52.8601 124.89 56.7001C124.873 56.7795 124.876 56.862 124.899 56.9399C124.922 57.0178 124.964 57.0886 125.022 57.1455C125.08 57.2025 125.152 57.2438 125.23 57.2656C125.308 57.2874 125.391 57.2889 125.47 57.2701C125.47 57.2701 128.12 56.4501 129.19 56.1001L122.8 67.3301C122.762 67.4103 122.756 67.5019 122.784 67.5863C122.811 67.6708 122.869 67.7417 122.946 67.7849C123.024 67.8281 123.115 67.8402 123.201 67.8189C123.287 67.7976 123.362 67.7444 123.41 67.6701ZM194.91 97.0001C194.39 96.7501 184.77 102.73 184.67 102.8C184.32 103.05 184.67 103.67 185.03 103.48C185.61 103.22 194.8 98.1101 195.11 97.5601C195.134 97.5102 195.147 97.4561 195.15 97.401C195.153 97.3458 195.145 97.2906 195.126 97.2386C195.108 97.1866 195.079 97.1388 195.042 97.0978C195.005 97.0569 194.96 97.0237 194.91 97.0001ZM169.45 85.5701C169.45 85.5701 179.09 78.2201 180.89 76.8201C181.28 76.5101 180.89 75.8201 180.43 75.8701C178.616 75.9134 176.809 76.1175 175.03 76.4801C177.611 73.7264 179.897 70.7099 181.85 67.4801C182.18 66.9401 181.38 66.3801 181.06 66.9301C178.857 70.524 176.235 73.8438 173.25 76.8201C172.93 77.1301 173.13 77.8901 173.65 77.8201C175.415 77.3707 177.215 77.0696 179.03 76.9201C179.03 76.9201 171.39 83.0701 169.03 85.0201C168.99 85.0839 168.971 85.1582 168.975 85.2333C168.978 85.3083 169.005 85.3804 169.05 85.4401C169.096 85.4998 169.158 85.5442 169.23 85.5675C169.301 85.5907 169.378 85.5916 169.45 85.5701ZM155.66 56.6201C161.8 46.0401 162.87 44.5001 161.84 44.2401C161.4 44.1301 161.42 44.1701 154.97 56.2401C154.94 56.3291 154.942 56.4259 154.976 56.5135C155.01 56.6011 155.073 56.674 155.156 56.7193C155.238 56.7647 155.334 56.7796 155.426 56.7614C155.518 56.7433 155.601 56.6933 155.66 56.6201Z" fill="#1A2A56"/>
<path d="M184 121.89C179.92 109.02 169.61 99.1201 155.69 94.7401C155.681 94.4852 155.654 94.2313 155.61 93.9801C159.41 92.3201 160.26 86.6101 159.42 81.6401C160.15 80.4501 162.09 74.3301 160.66 75.1701L158.05 76.7101C157.68 75.7101 157.25 74.7801 156.79 73.8601C156.89 72.2601 155.43 69.4001 152.86 67.5301C150.5 65.8101 146.44 64.2701 140.52 66.7301C135.9 68.6501 130.69 72.8901 129.9 79.0501C128.9 87.0501 131.55 90.9301 126.6 98.3601C121.13 95.8835 115.3 94.2969 109.33 93.6601C109.33 93.2119 109.3 92.7642 109.24 92.3201C111.79 91.0301 112.33 86.8301 112.44 85.4601C115.44 82.8601 115.79 77.6801 113.44 77.5601C114.044 73.8492 114.275 70.0871 114.13 66.3301C114 64.0001 113 63.4801 112.54 63.3801C112.215 63.3187 111.88 63.3499 111.572 63.4702C111.265 63.5904 110.997 63.7949 110.8 64.0601C110.05 62.5301 108.61 62.7201 107.8 63.8801C107.72 63.4684 107.513 63.0921 107.208 62.8044C106.903 62.5167 106.516 62.3322 106.1 62.2769C105.684 62.2216 105.262 62.2984 104.892 62.4964C104.522 62.6943 104.224 63.0035 104.04 63.3801C103.846 62.9673 103.534 62.6214 103.143 62.3864C102.752 62.1515 102.3 62.038 101.845 62.0605C101.389 62.0831 100.95 62.2405 100.585 62.5128C100.219 62.7852 99.9421 63.1602 99.7899 63.5901C98.7899 61.4201 96.2399 61.9201 95.6699 64.1201C94.9199 62.4301 92.8699 62.4401 92.1599 64.4001C90.2899 63.0201 88.8199 64.4001 88.5199 66.6701C88.3382 70.5301 88.4989 74.3985 88.9999 78.2301C85.6099 77.4701 88.2499 85.4101 90.2699 85.6001C90.6199 88.6001 91.8599 91.9001 94.2699 92.7001C94.2699 93.1001 94.2099 93.5101 94.2099 93.9101C87.7442 94.9427 81.5219 97.1489 75.8499 100.42C72.7299 98.2201 65.7899 95.2301 59.1199 95.7801C57.9114 93.2268 57.002 90.5423 56.4099 87.7801C55.9699 85.3701 57.0999 84.4201 57.0899 82.3401C58.3847 79.7309 58.7073 76.7457 57.9999 73.9201C54.8499 63.9201 35.8199 67.7201 36.3599 78.7001C36.4299 79.9501 36.5399 81.2001 36.6499 82.1701C34.2999 82.8801 34.6499 83.0501 35.2999 85.9101C35.6499 87.4701 36.0499 88.7601 37.6899 88.4201C38.4399 91.6701 40.3299 96.8601 44.7899 96.8601C45.0599 96.8601 44.7899 96.6901 45.0399 98.3701C33.8499 103.24 19.7999 112.37 16.1599 128.37C15.2799 132.23 14.7499 137.71 17.2699 141.85C20.0399 146.46 24.9399 146.75 28.4599 146.52C27.636 151.047 27.3707 155.658 27.6699 160.25C27.6717 160.314 27.6911 160.377 27.726 160.431C27.7609 160.484 27.81 160.528 27.8678 160.555C27.9256 160.583 27.9899 160.595 28.0538 160.589C28.1177 160.582 28.1786 160.559 28.2299 160.52C28.7699 160.2 27.7099 159.86 29.3999 146.45C38.8199 145.58 47.7999 141.53 56.0999 137.27C57.4699 138.27 58.8299 139.27 60.2399 140.17C61.3992 142.514 63.1756 144.498 65.3781 145.907C67.5807 147.317 70.1259 148.099 72.7399 148.17C72.49 152.38 72.49 156.6 72.7399 160.81C72.7437 160.861 72.7576 160.911 72.7809 160.956C72.8042 161.001 72.8364 161.042 72.8756 161.074C72.9148 161.107 72.9602 161.131 73.009 161.146C73.0579 161.161 73.1092 161.166 73.1599 161.16C74.0199 161.08 72.9099 160.65 73.5899 148.16C81.9099 148.16 88.7399 142.73 95.5899 138.58C103.65 142.27 123.41 149.14 133.86 147.16C134.34 151.42 134.27 155.46 134.68 159.58C134.693 159.654 134.732 159.721 134.79 159.769C134.847 159.817 134.92 159.844 134.995 159.844C135.07 159.844 135.143 159.817 135.2 159.769C135.258 159.721 135.297 159.654 135.31 159.58C135.572 155.37 135.402 151.145 134.8 146.97C142.05 145.25 146.5 140.14 147.68 132.2C148.16 131.88 148.68 131.52 149.22 131.11C155.41 133.58 168.22 139.59 174.48 139.81C174.19 144.46 173.78 149.37 173.71 154.19C173.724 154.272 173.766 154.345 173.829 154.399C173.892 154.452 173.972 154.481 174.055 154.481C174.138 154.481 174.217 154.452 174.281 154.399C174.344 154.345 174.386 154.272 174.4 154.19C174.54 152.86 175.45 141.51 175.4 139.78C185.42 139.55 187 131.35 184 121.89ZM112.64 79.1501C112.91 78.7901 113.06 78.3701 113.45 78.4901C114.85 78.9001 113.73 82.3801 112.56 83.9301C112.66 82.3401 112.69 80.7301 112.64 79.1501ZM88.7699 79.1501C89.0899 79.1501 89.0499 79.2901 89.7699 79.4301L90.1699 84.3701C88.6899 83.0001 87.6199 79.1701 88.7699 79.1701V79.1501ZM158.25 78.1501C158.292 78.0095 158.389 77.8916 158.518 77.8222C158.648 77.7528 158.799 77.7377 158.94 77.7801C159.081 77.8225 159.198 77.9191 159.268 78.0485C159.337 78.1779 159.352 78.3295 159.31 78.4701C158.96 79.7101 158.69 80.6101 158.46 81.4701C158.401 81.5771 158.318 81.6689 158.217 81.7383C158.116 81.8078 158.001 81.8529 157.88 81.8701C157 81.9001 157.94 79.0501 158.25 78.1301V78.1501ZM141.42 82.1501C141.99 81.7201 142.68 82.2701 142.79 82.2801C143.73 82.8801 144.79 82.0101 144.52 81.7601L144.32 81.6001C143.58 81.0201 142.06 79.8201 142.38 79.0001C142.62 78.3801 143.6 78.4701 144.24 78.4401C144.263 78.4394 144.285 78.4336 144.305 78.423C144.325 78.4125 144.343 78.3975 144.356 78.3792C144.37 78.3609 144.379 78.3397 144.383 78.3174C144.387 78.295 144.386 78.272 144.38 78.2501C144.28 77.9301 144.16 77.6101 144.04 77.2501C147.819 75.3758 151.963 74.3518 156.18 74.2501C156.61 75.2501 156.98 76.2001 157.31 77.1401C156.06 77.8501 154.64 78.6301 154.31 80.0501C154.013 80.0132 153.711 80.0434 153.427 80.1386C153.144 80.2338 152.885 80.3915 152.67 80.6001C151.1 78.7101 144.6 78.8701 143.29 78.9201C141.6 78.9901 146.06 82.4001 147.29 83.3601C151.42 86.5701 154.12 84.3601 153.09 81.4301C153.234 81.2531 153.424 81.1186 153.639 81.0411C153.854 80.9636 154.086 80.946 154.31 80.9901C154.347 81.1801 154.408 81.3648 154.49 81.5401C154.44 81.5154 154.385 81.5026 154.33 81.5026C154.274 81.5026 154.22 81.5154 154.17 81.5401C153.76 81.8001 154.17 82.1501 155.11 83.8201C154.994 83.938 154.87 84.0483 154.74 84.1501C154.36 84.4301 154.69 85.6501 155.96 84.1501C156.15 83.9201 155.79 83.2501 155.39 82.6601C155.873 82.9891 156.451 83.148 157.034 83.1118C157.617 83.0756 158.172 82.8463 158.61 82.4601C159.047 85.1449 158.799 87.8965 157.89 90.4601C156.89 92.9101 154.38 93.0501 154.89 93.9801C155.022 97.2771 154.753 100.578 154.09 103.81C151.52 103.25 146.46 96.9801 144.44 94.0701C144.649 91.6385 144.335 89.1904 143.52 86.8901C142.85 85.7301 141.52 85.2001 141.17 83.8901C141.033 83.598 140.984 83.2725 141.029 82.9531C141.073 82.6337 141.209 82.334 141.42 82.0901V82.1501ZM156.58 80.4801C156.47 80.8101 156.4 81.2701 156.04 81.2701C155.68 81.2701 155.5 80.8501 155.54 80.4901C155.58 80.1301 155.68 79.3001 156.06 79.0801C156.133 79.044 156.213 79.0252 156.295 79.0252C156.376 79.0252 156.457 79.044 156.53 79.0801C157 79.2101 156.75 79.9101 156.58 80.4201V80.4801ZM151.19 82.7801C151.08 83.0501 150.97 83.5401 150.65 83.6901C150.594 83.7175 150.532 83.7317 150.47 83.7317C150.408 83.7317 150.346 83.7175 150.29 83.6901C149.69 83.4701 150.35 81.2401 150.89 80.8101C150.937 80.7621 150.996 80.7268 151.06 80.7074C151.124 80.688 151.193 80.6851 151.258 80.6991C151.324 80.713 151.385 80.7433 151.436 80.7872C151.487 80.8311 151.526 80.8871 151.55 80.9501C151.76 81.4101 151.25 82.5701 151.19 82.7201V82.7801ZM149 81.8101C148.87 82.0701 148.81 82.3101 148.47 82.3101C148.39 82.3157 148.31 82.3015 148.237 82.2689C148.163 82.2362 148.099 82.1861 148.05 82.123C148.001 82.0598 147.967 81.9854 147.954 81.9065C147.94 81.8275 147.945 81.7464 147.97 81.6701C148.08 81.3401 148.2 80.5901 148.6 80.3901C148.663 80.3608 148.732 80.3449 148.802 80.3432C148.872 80.3416 148.941 80.3542 149.006 80.3805C149.07 80.4067 149.129 80.446 149.178 80.4958C149.227 80.5456 149.265 80.6049 149.29 80.6701C149.43 81.0001 149.2 81.4501 149 81.8101ZM144 94.6301C146.84 99.5301 154.32 106.63 154.9 104.25C155.554 101.425 155.856 98.5296 155.8 95.6301C169.5 100.47 178.8 109.34 182.85 121.31C179.918 119.911 176.697 119.226 173.45 119.31C173.31 116.02 168.8 109.66 167.07 107.75C166.72 107.36 166.07 107.86 166.45 108.25C169.044 111.187 171.029 114.61 172.29 118.32C167.39 114.63 157.52 109.48 143.99 113.72C140.48 107.729 135.354 102.846 129.2 99.6301C133.629 96.7338 138.722 95.013 144 94.6301ZM91.8499 72.0701C97.8635 70.4287 104.182 70.247 110.28 71.5401C110.177 73.2348 110.231 74.9353 110.44 76.6201H110.26C109.43 72.8001 104.11 71.6201 102.32 75.6201C101.406 75.31 100.414 75.31 99.4999 75.6201C97.7699 72.0201 92.7599 73.1801 91.8399 76.7401H91.6499C91.8602 75.1929 91.9271 73.6296 91.8499 72.0701ZM105.45 80.3001C105.63 79.7901 107.25 76.0101 108.3 75.9001C108.387 75.899 108.474 75.9187 108.552 75.9577C108.63 75.9966 108.698 76.0536 108.75 76.124C108.802 76.1944 108.836 76.2761 108.85 76.3624C108.864 76.4486 108.857 76.537 108.83 76.6201C107.937 77.8918 107.142 79.2289 106.45 80.6201C106.2 81.2401 105.22 81.0001 105.45 80.3001ZM104 78.9001C103.88 79.2001 103.34 79.3801 103.15 79.0301C102.96 78.6801 103.42 77.3501 104.72 75.4001C105.05 74.9101 105.36 74.6701 105.63 74.7101C105.718 74.7352 105.798 74.7814 105.864 74.8447C105.93 74.908 105.979 74.9865 106.008 75.0733C106.037 75.1601 106.044 75.2526 106.028 75.3426C106.013 75.4327 105.976 75.5177 105.92 75.5901C105.159 76.6186 104.515 77.7288 104 78.9001ZM95.2999 80.5601C95.7299 79.6201 96.2099 78.6701 96.6699 77.7401C96.719 77.6504 96.7913 77.5756 96.8793 77.5234C96.9673 77.4713 97.0677 77.4438 97.1699 77.4438C97.2722 77.4438 97.3726 77.4713 97.4605 77.5234C97.5485 77.5756 97.6208 77.6504 97.6699 77.7401C97.7327 77.835 97.7662 77.9463 97.7662 78.0601C97.7662 78.1739 97.7327 78.2852 97.6699 78.3801C97.2299 79.2501 96.7799 80.1601 96.2999 81.0401C95.9199 81.5401 94.9999 81.1601 95.2999 80.5601ZM94.0899 79.3001L94.0299 79.3701C93.7199 79.8201 92.9399 79.5301 93.1499 78.9601C93.7273 77.4237 94.4647 75.9522 95.3499 74.5701C95.7799 74.0501 96.6499 74.5001 96.3499 75.1101C95.6399 76.5301 94.7699 77.8601 94.0899 79.3001ZM90.5199 79.3901C91.1599 79.1201 91.3399 78.3901 91.5199 77.7601L91.7299 77.7001C91.6775 78.3939 91.7627 79.0911 91.9807 79.7519C92.1986 80.4126 92.545 81.0237 92.9999 81.5501C93.5393 82.0798 94.2152 82.4492 94.9522 82.6171C95.6893 82.7851 96.4585 82.745 97.1741 82.5013C97.8896 82.2575 98.5234 81.8198 99.0047 81.2369C99.4861 80.654 99.796 79.9489 99.8999 79.2001C99.7965 80.1631 99.7531 81.1317 99.7699 82.1001C99.7699 82.7001 99.6299 83.4501 100.37 83.5001H101.37C101.89 83.5001 102.03 82.6001 101.43 82.5901H100.69C100.632 80.8084 100.729 79.025 100.98 77.2601C101.05 76.7701 100.34 76.7001 100.24 77.1601C99.7999 79.3101 100.24 78.0801 99.8499 76.4901C100.548 76.2398 101.312 76.2398 102.01 76.4901C101.79 77.2918 101.746 78.1318 101.883 78.952C102.019 79.7721 102.332 80.5528 102.8 81.2401C103.156 81.7018 103.608 82.0814 104.124 82.3534C104.639 82.6254 105.208 82.7833 105.79 82.8165C106.372 82.8497 106.955 82.7574 107.498 82.5458C108.042 82.3342 108.533 82.0083 108.94 81.5901C109.922 80.4938 110.445 79.0615 110.4 77.5901H110.59C110.71 78.4601 110.89 79.6601 111.81 79.5901C111.71 83.0101 112.01 88.8701 109.3 91.0101C108.95 91.2901 108.55 91.6101 108.5 91.9301C108.375 92.9898 108.375 94.0605 108.5 95.1201C108.79 97.8901 103.94 103.37 101.43 105.71C96.5899 99.1301 95.1999 98.4801 95.2099 92.7101C95.2099 92.1301 95.1399 92.0401 94.7399 91.8401C90.6899 89.8801 91.0599 84.2301 90.5199 79.3901ZM94.2599 94.7901C94.3699 97.8601 96.7799 102.01 101.03 106.48C101.89 107.6 109.49 98.2701 109.34 96.2501V94.5601C129.81 96.9701 144.48 108.75 146.82 124.63C138.32 122.96 127.58 124.92 125.76 125.27C124.979 120.297 123.509 115.457 121.39 110.89C121.354 110.801 121.284 110.73 121.196 110.693C121.108 110.655 121.009 110.654 120.92 110.69C120.831 110.726 120.76 110.796 120.723 110.884C120.685 110.972 120.684 111.071 120.72 111.16C122.559 115.667 123.9 120.362 124.72 125.16C119.46 119.62 111.46 117.16 100.31 117.66C93.5987 117.971 86.9321 118.919 80.3999 120.49C80.9224 117.441 82.1671 114.56 84.0299 112.09C84.0708 112.016 84.0831 111.929 84.0647 111.846C84.0463 111.763 83.9983 111.69 83.9298 111.639C83.8612 111.589 83.7768 111.566 83.6922 111.573C83.6076 111.581 83.5286 111.619 83.4699 111.68C81.3687 114.276 79.989 117.381 79.4699 120.68C72.2197 122.419 65.1788 124.937 58.4699 128.19C59.3899 108.6 77.4999 98.1001 94.2599 94.7901ZM50.8899 76.2701C50.8797 77.2196 50.9365 78.1686 51.0599 79.1101C47.4599 79.2001 41.7399 80.6001 37.4799 81.9201C37.3699 81.0401 37.1199 79.4401 37.1099 78.4901C41.3963 76.4472 46.1788 75.6767 50.8899 76.2701ZM47.7099 81.6401C45.7099 85.0401 46.1399 85.6401 45.4699 85.6401C45.3947 85.6447 45.3196 85.6311 45.2507 85.6006C45.1819 85.57 45.1214 85.5234 45.0743 85.4646C45.0273 85.4058 44.995 85.3365 44.9804 85.2626C44.9657 85.1888 44.9689 85.1124 44.9899 85.0401C45.8999 81.6001 46.7699 80.9601 47.2099 80.8801C47.3058 80.8606 47.4054 80.8702 47.4958 80.9078C47.5862 80.9454 47.6633 81.0092 47.7171 81.0909C47.7709 81.1727 47.7989 81.2687 47.7977 81.3666C47.7964 81.4645 47.7658 81.5598 47.7099 81.6401ZM44.6199 82.3901C44.2499 83.0001 44.1599 83.8501 43.6199 83.7201C43.0799 83.5901 43.4699 82.3701 43.7899 81.7201C44.1099 81.0701 44.3899 81.0601 44.5799 81.1101C44.687 81.1392 44.7822 81.2012 44.8522 81.2873C44.9222 81.3734 44.9633 81.4793 44.9699 81.5901C44.9307 81.8844 44.8094 82.1616 44.6199 82.3901ZM37.1799 84.3901C37.0699 84.6501 37.0599 85.4501 36.5199 85.4501C36.4148 85.4542 36.3114 85.4229 36.2262 85.3613C36.141 85.2996 36.0789 85.2112 36.0499 85.1101C35.997 84.4105 36.2195 83.718 36.6699 83.1801C36.7628 83.0971 36.8796 83.0456 37.0035 83.033C37.1275 83.0204 37.2522 83.0474 37.3599 83.1101C37.5999 83.2701 37.5499 83.6901 37.1799 84.3601V84.3901ZM37.5499 86.7201C38.4599 83.4501 38.9799 82.9701 39.2899 82.9001C39.3536 82.8854 39.4202 82.8889 39.4821 82.9101C39.5439 82.9313 39.5986 82.9694 39.6399 83.0201C39.7759 83.1777 39.8441 83.3825 39.8299 83.5901L38.5099 87.0001C38.4688 87.1274 38.3788 87.2332 38.2597 87.2941C38.1406 87.3551 38.0022 87.3662 37.8749 87.3251C37.7476 87.284 37.6419 87.194 37.5809 87.0749C37.52 86.9558 37.5088 86.8174 37.5499 86.6901V86.7201ZM38.5499 88.2301C40.4699 87.6701 41.0899 87.8301 40.8799 84.9101C40.8099 84.0801 40.6499 82.1901 41.4899 82.2201C42.1699 82.2201 42.1899 85.3801 43.1999 86.3601C44.2099 87.3401 45.5199 86.6501 46.6199 86.3601C49.6199 85.5401 48.9599 84.2601 48.7399 80.2901L51.2599 80.0901C52.3899 85.9501 53.9099 81.5601 54.9299 80.9001C55.5799 80.4901 56.1399 81.3901 56.2599 82.0801C56.4899 83.5601 55.2599 85.1801 55.5199 87.3501C56.1092 90.4909 57.1183 93.5383 58.5199 96.4101C56.3299 100.57 50.0399 104.41 47.2399 105.93C46.0599 101.65 45.9599 96.0301 45.2399 96.0501C41.9199 96.0701 39.7399 93.5601 38.5099 88.2001L38.5499 88.2301ZM45.1299 99.3301C45.3099 100.84 46.0499 107.33 47.1299 106.79C49.8499 105.51 58.1299 100.07 59.3099 96.5701C61.0599 96.9701 66.5199 95.9101 74.9999 101.02C68.7422 104.758 63.7209 110.252 60.5599 116.82C52.4699 115.82 42.4599 114.57 34.0499 119.01C36.6199 112.95 38.1599 112.35 37.4299 111.87C37.3921 111.844 37.3495 111.826 37.3046 111.817C37.2597 111.808 37.2134 111.809 37.1686 111.818C37.1238 111.827 37.0813 111.846 37.0437 111.872C37.0062 111.898 36.9742 111.931 36.9499 111.97C36.6899 112.36 33.0399 118.39 32.9499 119.62C31.5399 120.48 28.5299 122.68 27.6299 124.41C23.9536 124.482 20.3712 125.584 17.2899 127.59C20.3299 115.82 29.9399 106.05 45.0899 99.3001L45.1299 99.3301ZM19.1999 143C15.3799 139 16.1999 132.31 16.9899 128.64C26.7499 122.23 39.6499 124.97 55.3499 136.8C50.0699 139.06 26.9999 151.09 19.1999 143ZM28.6399 124.39C36.5799 115.6 48.0599 116.16 60.1499 117.65C57.0499 124.8 56.7799 132.35 59.3699 138.51C50.3699 131.77 39.7399 124.36 28.6399 124.36V124.39ZM73.5199 147.39C63.6699 147.39 58.3799 138.74 58.5199 129.14C72.5199 122.85 84.7499 119.63 98.1499 118.7C110.39 117.85 118.63 120.08 124.03 125.7C97.6499 131.61 86.7599 147.36 73.5199 147.36V147.39ZM134 146.29C124.21 148.5 108 142.72 96.4799 138.11C114.84 127.27 131.36 123.18 146.95 125.61C148.18 136.78 143.58 144.12 134 146.29ZM147.87 131.15C148.389 125.368 147.167 119.562 144.36 114.48C155.1 111.7 164.17 113.32 172.05 119.42C161.7 120.19 151.27 128.27 147.86 131.15H147.87ZM175.07 138.92C168.95 138.92 156.07 132.92 150.14 130.5C156.48 125.7 163.99 120.61 173.03 120.25C176.561 120.032 180.084 120.804 183.2 122.48C185.88 131.52 184.54 138.86 175.06 138.92H175.07Z" fill="#1A2A56"/>
</svg>
